<svg xmlns="http://www.w3.org/2000/svg" width="25" height="25"><g transform="translate(0 -1027.362)"><circle cx="12.5" cy="1039.862" r="12.5" fill="#239fdb" fill-rule="evenodd"/><path fill="#0b5ecd" style="line-height:normal;text-indent:0;text-align:start;text-decoration-line:none;text-decoration-style:solid;text-decoration-color:#000;text-transform:none;block-progression:tb;isolation:auto;mix-blend-mode:normal" d="M10.877 24.88a12.5 12.5 0 0 0 .375.058A12.5 12.5 0 0 0 12.5 25a12.5 12.5 0 0 0 .885-.031 12.5 12.5 0 0 0 1.24-.15 12.5 12.5 0 0 0 1.219-.274 12.5 12.5 0 0 0 1.185-.395 12.5 12.5 0 0 0 1.14-.51 12.5 12.5 0 0 0 1.085-.622 12.5 12.5 0 0 0 1.016-.727 12.5 12.5 0 0 0 .939-.824 12.5 12.5 0 0 0 .852-.914 12.5 12.5 0 0 0 .755-.994 12.5 12.5 0 0 0 .655-1.067 12.5 12.5 0 0 0 .543-1.125 12.5 12.5 0 0 0 .427-1.174 12.5 12.5 0 0 0 .309-1.21 12.5 12.5 0 0 0 .188-1.235A12.5 12.5 0 0 0 25 12.5a12.5 12.5 0 0 0-.018-.514L19 6.004h-5v1l-1-1H6v3l3 3H6v8l4.877 4.877z" color="#000" font-family="sans-serif" font-weight="400" transform="translate(0 1027.362)"/><path fill="#fff" style="line-height:normal;text-indent:0;text-align:start;text-decoration-line:none;text-decoration-style:solid;text-decoration-color:#000;text-transform:none;block-progression:tb;isolation:auto;mix-blend-mode:normal" d="M2 1v3h7V1H2Zm8 0v6h5V1h-5zM3 2h5v1H3V2Zm8 0h3v4h-3V2zM2 7v8h7V7H2Zm1 1h5v6H3V8zm7 0v4h5V8h-5zm1 1h3v2h-3V9z" color="#000" font-family="sans-serif" font-weight="400" overflow="visible" transform="translate(4 1032.366)"/></g></svg>