<svg xmlns="http://www.w3.org/2000/svg" viewBox="0 0 468 468"><path fill="#ededed" d="M423 452H44.175l39.393-230.009V16H463v396c0 22.091-17.909 40-40 40z"/><path fill="#e0e0e0" d="M83.492 16v396.754c0 18.219-12.416 33.533-29.246 37.956a39.294 39.294 0 0 0 10 1.29c21.675 0 39.246-17.571 39.246-39.246V16h-20z"/><path fill="#e0e0e0" d="M44.246 452C22.571 452 5 434.429 5 412.754v-307.06h78.492v307.06c0 21.675-17.571 39.246-39.246 39.246z"/><path fill="#c9c9c9" d="M23 412.754v-307.06H5v307.06C5 434.429 22.571 452 44.246 452c3.456 0 4.807-.451 8-1.29C35.416 446.288 23 430.973 23 412.754z"/><path fill="#333" d="M44.246 418.296a5 5 0 0 1-5-5V144.398c0-2.762 2.238-5 5-5s5 2.238 5 5v268.897a5 5 0 0 1-5 5.001zM249 80H129c-2.762 0-5-2.238-5-5s2.238-5 5-5h120c2.762 0 5 2.238 5 5s-2.238 5-5 5zm0 55H129c-2.762 0-5-2.238-5-5s2.238-5 5-5h120c2.762 0 5 2.238 5 5s-2.238 5-5 5zm0 55H129c-2.762 0-5-2.238-5-5s2.238-5 5-5h120c2.762 0 5 2.238 5 5s-2.238 5-5 5zm0 55H129c-2.762 0-5-2.238-5-5s2.238-5 5-5h120c2.762 0 5 2.238 5 5s-2.238 5-5 5zm168.472 55H129c-2.762 0-5-2.238-5-5s2.238-5 5-5h288.472a5 5 0 1 1 0 10zm0 55H129c-2.762 0-5-2.238-5-5s2.238-5 5-5h288.472a5 5 0 1 1 0 10zm0 55H129c-2.762 0-5-2.238-5-5s2.238-5 5-5h288.472a5 5 0 1 1 0 10z"/><circle cx="360" cy="116" r="39.801" fill="#ed4848"/><path fill="#cc4040" d="M335.2 116c0-19.416 13.906-35.576 32.3-39.085a39.942 39.942 0 0 0-7.5-.716c-21.981 0-39.8 17.819-39.8 39.801s17.819 39.801 39.8 39.801c2.565 0 5.07-.252 7.5-.716-18.394-3.509-32.3-19.669-32.3-39.085z"/><circle cx="346.777" cy="108.932" r="10.947" fill="#383838"/><circle cx="361.67" cy="134.953" r="7" fill="#383838"/><circle cx="379.439" cy="113.772" r="5.385" fill="#383838"/><path fill="#383838" d="M420.472 106.472c-3.426 0-6.42 1.814-8.1 4.528h-7.858c-.961-8.611-4.373-16.488-9.52-22.925l5.573-5.573c3.106.732 6.507-.103 8.93-2.525a9.528 9.528 0 0 0-13.475-13.475c-2.423 2.423-3.257 5.823-2.525 8.93l-5.573 5.573c-6.437-5.147-14.314-8.559-22.925-9.52v-7.858c2.714-1.679 4.528-4.674 4.528-8.1a9.528 9.528 0 0 0-19.056 0c0 3.426 1.814 6.42 4.528 8.1v7.858c-8.611.961-16.488 4.373-22.925 9.52l-5.573-5.573c.732-3.106-.103-6.507-2.525-8.93a9.528 9.528 0 0 0-13.475 13.475c2.423 2.423 5.823 3.257 8.93 2.525l5.573 5.573c-5.147 6.437-8.559 14.314-9.52 22.925h-7.858c-1.679-2.714-4.674-4.528-8.1-4.528a9.528 9.528 0 0 0 0 19.056c3.426 0 6.42-1.814 8.1-4.528h7.858c.961 8.611 4.373 16.488 9.52 22.925l-5.573 5.573c-3.106-.732-6.507.103-8.93 2.525a9.528 9.528 0 0 0 13.475 13.475c2.423-2.423 3.257-5.823 2.525-8.93l5.573-5.573c6.437 5.147 14.314 8.559 22.925 9.52v7.858c-2.714 1.679-4.528 4.674-4.528 8.1a9.528 9.528 0 0 0 19.056 0c0-3.426-1.814-6.42-4.528-8.1v-7.858c8.611-.961 16.488-4.373 22.925-9.52l5.573 5.573c-.732 3.106.103 6.507 2.525 8.93a9.528 9.528 0 0 0 13.475-13.475c-2.423-2.423-5.823-3.257-8.93-2.525l-5.573-5.573c5.147-6.437 8.559-14.314 9.52-22.925h7.858c1.679 2.714 4.674 4.528 8.1 4.528a9.528 9.528 0 0 0 0-19.056zM360 150.801c-19.189 0-34.801-15.611-34.801-34.801S340.811 81.199 360 81.199 394.801 96.811 394.801 116 379.189 150.801 360 150.801z"/><path fill="#29b6f6" d="M299.528 209.508h117.944v46.61H299.528z"/><path fill="#00aae5" d="M299.528 209.509h20v46.61h-20z"/><path fill="#333" d="M417.472 261.118H299.528a5 5 0 0 1-5-5v-46.609a5 5 0 0 1 5-5h117.943a5 5 0 0 1 5 5v46.609a4.998 4.998 0 0 1-4.999 5zm-112.944-10h107.943v-36.609H304.528v36.609z"/><path fill="#333" d="M463 11H83.568a5 5 0 0 0-5 5v84.693H5a5 5 0 0 0-5 5v307.061c0 24.354 19.778 44.172 44.115 44.243l.06.003H423c24.813 0 45-20.187 45-45V16a5 5 0 0 0-5-5zM10 412.754V110.693h68.492v302.061C78.492 431.638 63.13 447 44.246 447S10 431.638 10 412.754zM458 412c0 19.299-15.701 35-35 35H72.227c9.921-8.121 16.266-20.455 16.266-34.246L88.568 21H458v391z"/></svg>