<svg xmlns="http://www.w3.org/2000/svg" width="128" height="128" viewBox="0 0 33.867 33.867"><path fill="#06f" d="M 20.597656,4.0390625 C 15.071536,4.0472263 9,6.2718892 9,14 l 0.039063,9.732422 c 0.012094,8.177499 -0.4879584,15.347656 7.689454,15.347656 6.222694,0 8.622384,-3.549944 9.935546,-8.949219 l 22.691407,-3e-6 c -0.03493,0.499335 -2.315805,52.089248 -3.333985,75.730474 l -4.679687,4.0664 C 37.163203,113.00012 36.965077,123.9879 45.142578,124 h 37.707031 c 8.177503,-0.0121 7.979374,-11.03503 3.800782,-14.10742 l -4.679688,-4.06641 c 0,0 -3.324371,-75.196694 -3.359375,-75.695314 l 22.724612,3e-6 c 1.31316,5.399275 3.71285,8.949219 9.93554,8.949219 8.17741,0 7.67736,-7.170157 7.68946,-15.347656 0,0 0.0391,-9.637346 0.0391,-9.732421 0,-7.7281115 -6.07154,-9.9527747 -11.59766,-9.9609385 z" paint-order="markers fill stroke" transform="scale(.26458)"/><path fill="#a8d0ff" style="line-height:normal;font-variant-ligatures:normal;font-variant-position:normal;font-variant-caps:normal;font-variant-numeric:normal;font-variant-alternates:normal;font-variant-east-asian:normal;font-feature-settings:normal;font-variation-settings:normal;text-indent:0;text-align:start;text-decoration-line:none;text-decoration-style:solid;text-decoration-color:#000;text-transform:none;text-orientation:mixed;shape-padding:0;shape-margin:0;inline-size:0;isolation:auto;mix-blend-mode:normal" d="m 25.391745,13.696238 c 2.162764,0.575412 1.835834,3.237097 -0.256328,3.237097 l 5.062216,6.184827 c 0.628314,0.779811 0.449099,1.641298 -0.05082,2.133056 -0.499354,0.499354 -1.373021,0.671166 -2.164821,0.08187 l -6.187389,-5.059319 c 10e-6,2.092534 -2.658523,2.416312 -3.237156,0.25679 l -1.04581,-5.264327 c -0.175565,-0.79222 0.13621,-1.533354 0.609643,-2.00605 0.472686,-0.473429 1.213339,-0.785117 2.00561,-0.609564 z" color="#000" font-family="sans-serif" font-weight="400" overflow="visible" paint-order="markers fill stroke"/></svg>