<svg xmlns="http://www.w3.org/2000/svg" viewBox="0 0 50 50"><path fill="#e8ebf7" d="M41 43H9a1 1 0 000 2H24v2a1 1 0 002 0V45H41a1 1 0 000-2zM41 5H26V3a1 1 0 00-2 0V5H9A1 1 0 009 7H41a1 1 0 000-2zM6 8A.99979.99979 0 005 9V24H3a1 1 0 000 2H5V41a1 1 0 002 0V9A.99979.99979 0 006 8zM47 24H45V9a1 1 0 00-2 0V41a1 1 0 002 0V26h2a1 1 0 000-2z"/><path fill="#f7b2ce" d="M41,25a5.07146,5.07146,0,0,1-.93,2.92,4.80888,4.80888,0,0,1-1.45,1.39c0,.01,0,.01.01.02v.01a5.21,5.21,0,0,1,.32,1.8,5.09074,5.09074,0,0,1-4.78,5.08v.03A5.10167,5.10167,0,0,1,29.09,41,4.9888,4.9888,0,0,1,26,39.93a4.836,4.836,0,0,1-1-1.02,4.836,4.836,0,0,1-1,1.02A4.9888,4.9888,0,0,1,20.91,41a5.10167,5.10167,0,0,1-5.08-4.75v-.03a5.09074,5.09074,0,0,1-4.78-5.08,5.21,5.21,0,0,1,.32-1.8v-.01c.01-.01.01-.01.01-.02a4.80888,4.80888,0,0,1-1.45-1.39,5.04909,5.04909,0,0,1,0-5.84,4.80888,4.80888,0,0,1,1.45-1.39c0-.01,0-.01-.01-.02v-.01a5.21,5.21,0,0,1-.32-1.8,5.09074,5.09074,0,0,1,4.78-5.08V13.7A5.10866,5.10866,0,0,1,20.91,9,4.9888,4.9888,0,0,1,24,10.07a4.836,4.836,0,0,1,1,1.02,4.836,4.836,0,0,1,1-1.02A4.9888,4.9888,0,0,1,29.09,9a5.10866,5.10866,0,0,1,5.08,4.7v.08a5.09074,5.09074,0,0,1,4.78,5.08,5.21,5.21,0,0,1-.32,1.8v.01c-.01.01-.01.01-.01.02a4.80888,4.80888,0,0,1,1.45,1.39A5.07146,5.07146,0,0,1,41,25Z"/><circle cx="6" cy="6" r="4" fill="#fb6e5d"/><circle cx="44" cy="6" r="4" fill="#fb6e5d"/><path fill="#fb8f83" d="M44,3a3.992,3.992,0,0,1,3.9495,3.5A3.92738,3.92738,0,0,0,48,6a4,4,0,0,0-8,0,3.92738,3.92738,0,0,0,.0505.5A3.992,3.992,0,0,1,44,3Z"/><path fill="#e06353" d="M44,9a3.992,3.992,0,0,1-3.9495-3.5A3.92738,3.92738,0,0,0,40,6a4,4,0,0,0,8,0,3.92738,3.92738,0,0,0-.0505-.5A3.992,3.992,0,0,1,44,9Z"/><path fill="#fb8f83" d="M6,3A3.992,3.992,0,0,1,9.9495,6.5,3.92738,3.92738,0,0,0,10,6,4,4,0,0,0,2,6a3.92738,3.92738,0,0,0,.0505.5A3.992,3.992,0,0,1,6,3Z"/><path fill="#e06353" d="M6,9A3.992,3.992,0,0,1,2.0505,5.5,3.92738,3.92738,0,0,0,2,6a4,4,0,0,0,8,0,3.92738,3.92738,0,0,0-.0505-.5A3.992,3.992,0,0,1,6,9Z"/><circle cx="6" cy="44" r="4" fill="#fb6e5d"/><circle cx="44" cy="44" r="4" fill="#fb6e5d"/><path fill="#de548b" d="M36.14 14.31a5.16144 5.16144 0 01-2.51 3.8 1.022 1.022 0 01-.5.14 1.00093 1.00093 0 01-.5-1.87 3.107 3.107 0 001.54-2.68v.08A5.05863 5.05863 0 0136.14 14.31zM40.07 22.08a5.089 5.089 0 01-3.95 1.87 1 1 0 010-2 3.085 3.085 0 002.51-1.28c-.01.01-.01.01-.01.02A4.80888 4.80888 0 0140.07 22.08zM36.14 35.69a5.05863 5.05863 0 01-1.97.53v.03a3.10239 3.10239 0 00-1.54-2.63 1.00093 1.00093 0 01.5-1.87 1.022 1.022 0 01.5.14A5.16144 5.16144 0 0136.14 35.69zM38.62 29.31c0 .01 0 .01.01.02a3.085 3.085 0 00-2.51-1.28 1 1 0 010-2 5.089 5.089 0 013.95 1.87A4.80888 4.80888 0 0138.62 29.31zM13.86 14.31a5.16144 5.16144 0 002.51 3.8 1.022 1.022 0 00.5.14 1.00093 1.00093 0 00.5-1.87 3.107 3.107 0 01-1.54-2.68v.08A5.05863 5.05863 0 0013.86 14.31zM9.93 22.08a5.089 5.089 0 003.95 1.87 1 1 0 000-2 3.085 3.085 0 01-2.51-1.28c.01.01.01.01.01.02A4.80888 4.80888 0 009.93 22.08zM13.86 35.69a5.05863 5.05863 0 001.97.53v.03a3.10239 3.10239 0 011.54-2.63 1.00093 1.00093 0 00-.5-1.87 1.022 1.022 0 00-.5.14A5.16144 5.16144 0 0013.86 35.69zM11.38 29.31c0 .01 0 .01-.01.02a3.085 3.085 0 012.51-1.28 1 1 0 000-2 5.089 5.089 0 00-3.95 1.87A4.80888 4.80888 0 0011.38 29.31zM26 10.07V39.93a4.836 4.836 0 01-1-1.02 4.836 4.836 0 01-1 1.02V10.07a4.836 4.836 0 011 1.02A4.836 4.836 0 0126 10.07z"/><path fill="#fb8f83" d="M6,41a3.992,3.992,0,0,1,3.9495,3.5A3.92738,3.92738,0,0,0,10,44a4,4,0,0,0-8,0,3.92738,3.92738,0,0,0,.0505.5A3.992,3.992,0,0,1,6,41Z"/><path fill="#e06353" d="M6,47a3.992,3.992,0,0,1-3.9495-3.5A3.92738,3.92738,0,0,0,2,44a4,4,0,0,0,8,0,3.92738,3.92738,0,0,0-.0505-.5A3.992,3.992,0,0,1,6,47Z"/><path fill="#fb8f83" d="M44,41a3.992,3.992,0,0,1,3.9495,3.5A3.92738,3.92738,0,0,0,48,44a4,4,0,0,0-8,0,3.92738,3.92738,0,0,0,.0505.5A3.992,3.992,0,0,1,44,41Z"/><path fill="#e06353" d="M44,47a3.992,3.992,0,0,1-3.9495-3.5A3.92738,3.92738,0,0,0,40,44a4,4,0,0,0,8,0,3.92738,3.92738,0,0,0-.0505-.5A3.992,3.992,0,0,1,44,47Z"/></svg>