<svg xmlns="http://www.w3.org/2000/svg" width="400" height="400"><path fill="#E8E8E8" d="M230.242 82.549c-.104.469-.222.938-.352 1.409l-.169-1.214c.169-.065.352-.131.521-.195z"/><path fill="#E8E8E8" d="M230.242 82.549c-.104.469-.222.938-.352 1.409l-.169-1.214c.169-.065.352-.131.521-.195z"/><path fill="#FCD2B1" d="M222.102 264.122c-7.378 4.43-15.493 6.644-24.348 6.644h-3.684c-8.855 0-16.969-2.214-24.346-6.644l-23.606-15.489h-1.477v76.523l51.643 29.507 51.64-29.507v-76.523h-1.475l-24.347 15.489z"/><path fill="#FFE3CA" d="M277.43 152.729a80.914 80.914 0 0 0-81.151-81.149c-45 0-81.147 36.146-81.147 81.149h-7.376v14.753c0 8.116 6.64 14.757 14.752 14.757v27.296c0 15.49 8.115 29.508 20.657 37.621l27.296 16.966c7.376 4.43 15.491 6.644 24.343 6.644h3.689c8.852 0 16.968-2.214 24.347-6.644l27.294-16.966c13.278-8.113 20.658-22.131 20.658-37.621v-27.296c8.112 0 14.752-6.641 14.752-14.757v-14.753h-8.114z"/><path fill="#FCD2B1" d="m138.115 280.76 25.838-3.532h69.784l20.701 3.595s9.567 51.897-45.924 56.104c-55.49 4.204-72.697-30.779-70.399-56.167z"/><path fill="#F7F7F7" d="M219.024 374.648c-15.835.339-31.88.313-47.677-.053l5.805-56.441c5.987 1.499 12.431 2.309 19.136 2.309 5.909 0 11.622-.626 16.996-1.813l5.74 55.998z"/><path fill="#F7F7F7" d="m177.153 318.154-5.805 56.441c-.378-.013-.743-.013-1.109-.025-50.964-1.239-99.228-6.118-128.877-14.622l4.421-33.212c1.487-11.061 9.588-20.648 20.663-24.34l17.479-5.284 23.832-7.187.052-.025 30.302-9.146c1.121 17.364 17.101 31.947 39.042 37.4zm174.049 41.794c-30.081 8.634-79.335 13.525-131.107 14.675-.366.013-.718.013-1.07.025l-5.74-55.999c22.997-5.009 39.955-19.944 41.155-37.828l22.944 7.147 5.27 1.644 23.57 7.331 19.893 6.196c11.062 3.691 19.189 12.548 20.662 24.341l4.423 32.468z"/><linearGradient id="a" x1="229.721" x2="230.242" y1="83.254" y2="83.254" gradientUnits="userSpaceOnUse"><stop offset=".348" stop-color="#4d4d4d"/><stop offset=".921" stop-color="#333"/></linearGradient><path fill="url(#a)" d="M230.242 82.549c-.104.469-.222.938-.352 1.409l-.169-1.214c.169-.065.352-.131.521-.195z"/><linearGradient id="b" x1="229.721" x2="230.242" y1="83.254" y2="83.254" gradientUnits="userSpaceOnUse"><stop offset=".348" stop-color="#4d4d4d"/><stop offset=".921" stop-color="#333"/></linearGradient><path fill="url(#b)" d="M230.242 82.549c-.104.469-.222.938-.352 1.409l-.169-1.214c.169-.065.352-.131.521-.195z"/><path fill="#F2F2F2" d="m306.512 296.773-15.174-4.584L255 327.338l-34.906 47.285-.939 1.265-.13-1.239-5.74-55.999-.052-.495s35.101-26.317 35.101-39.153l9.875 1.754 19.175 7.214 5.075 1.904.195-.261.027-.038 23.831 7.198zm-129.359 21.381-5.805 56.441-.13 1.292-.979-1.317-34.463-46.686-27.967-37.984-.052.025.052-.025 24.354-9.146 12.483-.887c0 12.837 32.507 38.287 32.507 38.287z"/><path fill="#0B4870" d="m278.51 174.43-3.65-9.54-20.69 7.91c-.64-1.09-1.36-2.13-2.17-3.12-5.16-6.37-13.56-10.52-23.03-10.52-13.3 0-24.5 8.2-27.6 19.24v-.29h-7.92c-3.21-10.891-14.34-18.95-27.53-18.95-8.46 0-16.07 3.32-21.28 8.57a25.818 25.818 0 0 0-4.33 5.789l-19.13-4.649-2.42 9.93 18.74 4.55c-.03.42-.04.83-.04 1.25 0 6.471 2.71 12.381 7.18 16.86 5.21 5.26 12.82 8.58 21.28 8.58 13.31 0 24.51-8.2 27.61-19.24h7.84c3.1 11.04 14.3 19.24 27.6 19.24 9.46 0 17.86-4.15 23.03-10.51 3.42-4.19 5.43-9.351 5.43-14.931 0-.689-.03-1.38-.1-2.06l21.18-8.109zm-112.59 24.34c-8.86 0-16.17-5.56-17.09-12.659-.07-.5-.1-1-.1-1.511 0-3.069 1.2-5.93 3.23-8.25 3.12-3.58 8.21-5.92 13.96-5.92 9.48 0 17.19 6.36 17.19 14.17s-7.71 14.17-17.19 14.17zm80.01-11.87c-1.34 6.72-8.43 11.869-16.96 11.869-9.48 0-17.19-6.359-17.19-14.17 0-7.81 7.71-14.17 17.19-14.17 6.04 0 11.37 2.59 14.43 6.49 1.75 2.21 2.76 4.85 2.76 7.68 0 .781-.08 1.551-.23 2.301z"/><linearGradient id="c" x1="148.73" x2="183.11" y1="184.6" y2="184.6" gradientUnits="userSpaceOnUse"><stop offset=".348" stop-color="#4d4d4d"/><stop offset=".921" stop-color="#333"/></linearGradient><path fill="url(#c)" d="M183.11 184.6c0 7.811-7.71 14.17-17.19 14.17-8.86 0-16.17-5.56-17.09-12.659-.07-.5-.1-1-.1-1.511 0-3.069 1.2-5.93 3.23-8.25 3.12-3.58 8.21-5.92 13.96-5.92 9.48 0 17.19 6.36 17.19 14.17z"/><path fill="#CCE9FF" d="M245.93 186.9c-1.34 6.72-8.43 11.869-16.96 11.869-9.48 0-17.19-6.359-17.19-14.17 0-7.81 7.71-14.17 17.19-14.17 6.04 0 11.37 2.59 14.43 6.49 1.75 2.21 2.76 4.85 2.76 7.68 0 .781-.08 1.551-.23 2.301zm-62.82-2.3c0 7.811-7.71 14.17-17.19 14.17-8.86 0-16.17-5.56-17.09-12.659-.07-.5-.1-1-.1-1.511 0-3.069 1.2-5.93 3.23-8.25 3.12-3.58 8.21-5.92 13.96-5.92 9.48 0 17.19 6.36 17.19 14.17z"/><path fill="#CCE9FF" d="M246.16 184.6c0 .78-.08 1.551-.23 2.301-1.34 6.72-8.43 11.869-16.96 11.869-9.48 0-17.19-6.359-17.19-14.17 0-7.81 7.71-14.17 17.19-14.17 6.04 0 11.37 2.59 14.43 6.49 1.75 2.21 2.76 4.85 2.76 7.68z"/><linearGradient id="d" x1="155.785" x2="155.785" y1="123.87" y2="124.19" gradientUnits="userSpaceOnUse"><stop offset=".37" stop-color="#ccc"/><stop offset="1" stop-color="gray"/></linearGradient><path fill="url(#d)" d="M155.76 124.19c.01-.051.03-.181.05-.32h-.02c-.02.2-.03.29-.03.32z"/><path fill="#D3D3D3" d="M302.78 124.01c0-.38-.01-.75-.02-1.13-.1-4.899-.93-9.61-2.35-14.04-.01-.01-.01-.03-.02-.05-4.29-11.24-13.9-19.88-25.81-22.78.71-2.71 1.11-5.56 1.17-8.479.32-15.29-8.65-28.61-21.74-34.57-4.45-2.03-9.39-3.2-14.58-3.31-1.26-.03-2.5.01-3.72.109-.61.04-1.22.101-1.82.181-.91-1.421-1.75-2.79-2.57-4.091-8.86-6.92-20.9-11.22-34.18-11.319-.16.04-.32.09-.48.14-.16-.05-.32-.1-.49-.14-13.28.1-25.32 4.39-34.17 11.31-.83 1.3-1.67 2.68-2.58 4.101-.6-.08-1.21-.141-1.82-.181-1.23-.1-2.46-.14-3.72-.109a36.893 36.893 0 0 0-14.58 3.31c-13.09 5.96-22.06 19.28-21.74 34.57.06 2.92.46 5.77 1.16 8.479-11.9 2.9-21.51 11.54-25.8 22.78-.02.01-.02.03-.02.05a48.877 48.877 0 0 0-2.35 14.04c-.01.38-.02.75-.02 1.13.76 14.601 9.92 26.88 22.67 32.25-.71 6.9 1.62 13.23 4.2 17.91 4.54-.67 8.72-2.22 12.55-4.45h.01c.32-.76.51-1.35.52-1.68.08-3.021 3.12-3.59 4.02-9.55 15.53-2.92 9.83-17.061 12.06-32.71 1.93.489 5.47-2.41 9.23-1.91.02-.12.03-.2.05-.25 0 .06-.01.16-.03.25 7.42.36 30.82 5.14 40.84 6.08l40.87-6.08c.12 1.14.26 2.28.45 3.42 2.58 17.11 11.49 34.29 25.36 42.43h.02c3.81 2.23 8 3.78 12.54 4.45 2.28-4.11 4.35-9.479 4.35-15.38 0-.84-.04-1.68-.14-2.53 12.75-5.371 21.92-17.651 22.68-32.251zm-72.83-40.6c-.12.46-.24.93-.38 1.399l-.14-1.22c.17-.059.35-.119.52-.179zm-66.07.18-.14 1.22c-.14-.47-.27-.939-.39-1.399.18.059.36.119.53.179z"/><linearGradient id="e" x1="163.615" x2="163.615" y1="83.41" y2="84.81" gradientUnits="userSpaceOnUse"><stop offset=".37" stop-color="#ccc"/><stop offset="1" stop-color="gray"/></linearGradient><path fill="url(#e)" d="M163.35 83.41c.18.06.36.12.53.18l-.14 1.22c-.14-.47-.27-.94-.39-1.4z"/><linearGradient id="f" x1="196.655" x2="196.655" y1="24.53" y2="24.67" gradientUnits="userSpaceOnUse"><stop offset=".37" stop-color="#ccc"/><stop offset="1" stop-color="gray"/></linearGradient><path fill="url(#f)" d="M197.14 24.53c-.16.04-.32.09-.48.14-.16-.05-.32-.1-.49-.14h.97z"/><linearGradient id="g" x1="229.69" x2="229.69" y1="83.41" y2="84.81" gradientUnits="userSpaceOnUse"><stop offset=".37" stop-color="#ccc"/><stop offset="1" stop-color="gray"/></linearGradient><path fill="url(#g)" d="M229.43 83.59c.17-.06.35-.12.52-.18-.12.46-.24.93-.38 1.399l-.14-1.219z"/></svg>